<svg width="17" height="17" viewBox="0 0 17 17" fill="none" xmlns="http://www.w3.org/2000/svg">
<path d="M15.9748 11.1921C15.3578 11.3039 14.853 11.1921 14.6286 10.8007C14.4042 10.4094 14.5725 9.85031 14.9651 9.40306C14.4603 8.89989 13.8994 8.56445 13.2264 8.39673C13.0581 8.9558 12.6655 9.40306 12.2167 9.40306C11.768 9.40306 11.3754 9.01171 11.2071 8.39673C10.5341 8.56445 9.91707 8.89989 9.46835 9.40306C9.86098 9.85031 10.0292 10.4094 9.80489 10.8007C9.58053 11.1921 9.01963 11.3039 8.45873 11.1921C8.29046 11.5275 8.23438 11.863 8.23438 12.1984C8.23438 12.5339 8.29047 12.8693 8.34655 13.2047C8.96354 13.0929 9.46835 13.2047 9.69271 13.5961C9.91707 13.9874 9.7488 14.5465 9.35617 14.9938C9.86098 15.4969 10.4219 15.8324 11.0949 16.0001C11.2632 15.441 11.6558 14.9938 12.1046 14.9938C12.5533 14.9938 12.9459 15.3851 13.1142 16.0001C13.7873 15.8324 14.4042 15.4969 14.853 14.9938C14.4603 14.5465 14.2921 13.9874 14.5164 13.5961C14.7408 13.2047 15.3017 13.0929 15.8626 13.2047C15.9748 12.8693 15.9748 12.5339 15.9748 12.1984C15.9748 11.863 16.0308 11.5275 15.9748 11.1921Z" stroke="white" stroke-width="1.2" stroke-miterlimit="10" stroke-linecap="round" stroke-linejoin="round"/>
<path d="M12.1609 13.3166C12.7804 13.3166 13.2827 12.816 13.2827 12.1985C13.2827 11.5809 12.7804 11.0803 12.1609 11.0803C11.5413 11.0803 11.0391 11.5809 11.0391 12.1985C11.0391 12.816 11.5413 13.3166 12.1609 13.3166Z" stroke="white" stroke-width="1.2" stroke-miterlimit="10" stroke-linecap="round" stroke-linejoin="round"/>
<path d="M10.1987 8.78803C10.7035 8.17305 11.0401 7.44626 11.0401 6.60765C11.0401 5.99268 11.5449 5.48951 12.1618 5.48951V4.20365C12.1618 2.63825 10.984 1.18467 9.41345 1.01694C8.29166 0.90513 7.28205 1.35239 6.66506 2.19099C6.21634 2.07918 5.76762 2.13509 5.20673 2.52644C4.64583 2.91779 4.30929 3.64458 4.30929 4.37137V4.93044V5.76905V6.49584C4.30929 7.7258 4.98237 8.89985 5.99198 9.51482C5.99198 10.8007 5.09455 11.8629 3.86057 12.1984C2.40224 12.5897 1.33654 13.7638 1 15.2173C1 15.3851 1.11218 15.5528 1.33654 15.5528H10.1426" stroke="white" stroke-width="1.2" stroke-miterlimit="10" stroke-linecap="round" stroke-linejoin="round"/>
</svg>
