<svg width="13" height="14" viewBox="0 0 13 14" fill="none" xmlns="http://www.w3.org/2000/svg">
<path d="M12.1056 13.35H0.65V0.65H9.37521L12.1056 3.38035V13.35Z" stroke="white" stroke-width="1.3"/>
<mask id="path-2-outside-1_1570_2647" maskUnits="userSpaceOnUse" x="4" y="3" width="5" height="9" fill="black">
<rect fill="white" x="4" y="3" width="5" height="9"/>
<path d="M5.875 8.90838V8.84091C5.87973 8.40057 5.92353 8.05019 6.00639 7.78977C6.09162 7.52936 6.21236 7.31866 6.36861 7.15767C6.52486 6.99669 6.71307 6.84991 6.93324 6.71733C7.07528 6.62737 7.20313 6.52675 7.31676 6.41548C7.4304 6.30421 7.52036 6.17637 7.58665 6.03196C7.65294 5.88755 7.68608 5.72775 7.68608 5.55256C7.68608 5.34186 7.63636 5.15956 7.53693 5.00568C7.4375 4.8518 7.30492 4.73343 7.1392 4.65057C6.97585 4.56534 6.79356 4.52273 6.59233 4.52273C6.41004 4.52273 6.23603 4.56061 6.07031 4.63636C5.90459 4.71212 5.76728 4.83049 5.65838 4.99148C5.54948 5.15009 5.48674 5.35488 5.47017 5.60582H4.39062C4.4072 5.17969 4.51491 4.81984 4.71378 4.52628C4.91264 4.23035 5.17543 4.00663 5.50213 3.85511C5.8312 3.7036 6.1946 3.62784 6.59233 3.62784C7.02794 3.62784 7.40909 3.70952 7.7358 3.87287C8.0625 4.03385 8.31581 4.25994 8.49574 4.55114C8.67803 4.83996 8.76918 5.17732 8.76918 5.56321C8.76918 5.82836 8.72775 6.06747 8.64489 6.28054C8.56203 6.49124 8.44366 6.67945 8.28977 6.84517C8.13826 7.01089 7.95597 7.15767 7.7429 7.28551C7.54167 7.41098 7.37831 7.54119 7.25284 7.67614C7.12973 7.81108 7.03977 7.97088 6.98295 8.15554C6.92614 8.3402 6.89536 8.56866 6.89062 8.84091V8.90838H5.875ZM6.41122 11.0675C6.21709 11.0675 6.05019 10.9988 5.91051 10.8615C5.77083 10.7218 5.70099 10.5537 5.70099 10.3572C5.70099 10.1631 5.77083 9.9974 5.91051 9.86009C6.05019 9.72041 6.21709 9.65057 6.41122 9.65057C6.60298 9.65057 6.7687 9.72041 6.90838 9.86009C7.05043 9.9974 7.12145 10.1631 7.12145 10.3572C7.12145 10.4875 7.08831 10.607 7.02202 10.7159C6.9581 10.8224 6.87287 10.9077 6.76634 10.9716C6.6598 11.0355 6.54143 11.0675 6.41122 11.0675Z"/>
</mask>
<path d="M5.875 8.90838V8.84091C5.87973 8.40057 5.92353 8.05019 6.00639 7.78977C6.09162 7.52936 6.21236 7.31866 6.36861 7.15767C6.52486 6.99669 6.71307 6.84991 6.93324 6.71733C7.07528 6.62737 7.20313 6.52675 7.31676 6.41548C7.4304 6.30421 7.52036 6.17637 7.58665 6.03196C7.65294 5.88755 7.68608 5.72775 7.68608 5.55256C7.68608 5.34186 7.63636 5.15956 7.53693 5.00568C7.4375 4.8518 7.30492 4.73343 7.1392 4.65057C6.97585 4.56534 6.79356 4.52273 6.59233 4.52273C6.41004 4.52273 6.23603 4.56061 6.07031 4.63636C5.90459 4.71212 5.76728 4.83049 5.65838 4.99148C5.54948 5.15009 5.48674 5.35488 5.47017 5.60582H4.39062C4.4072 5.17969 4.51491 4.81984 4.71378 4.52628C4.91264 4.23035 5.17543 4.00663 5.50213 3.85511C5.8312 3.7036 6.1946 3.62784 6.59233 3.62784C7.02794 3.62784 7.40909 3.70952 7.7358 3.87287C8.0625 4.03385 8.31581 4.25994 8.49574 4.55114C8.67803 4.83996 8.76918 5.17732 8.76918 5.56321C8.76918 5.82836 8.72775 6.06747 8.64489 6.28054C8.56203 6.49124 8.44366 6.67945 8.28977 6.84517C8.13826 7.01089 7.95597 7.15767 7.7429 7.28551C7.54167 7.41098 7.37831 7.54119 7.25284 7.67614C7.12973 7.81108 7.03977 7.97088 6.98295 8.15554C6.92614 8.3402 6.89536 8.56866 6.89062 8.84091V8.90838H5.875ZM6.41122 11.0675C6.21709 11.0675 6.05019 10.9988 5.91051 10.8615C5.77083 10.7218 5.70099 10.5537 5.70099 10.3572C5.70099 10.1631 5.77083 9.9974 5.91051 9.86009C6.05019 9.72041 6.21709 9.65057 6.41122 9.65057C6.60298 9.65057 6.7687 9.72041 6.90838 9.86009C7.05043 9.9974 7.12145 10.1631 7.12145 10.3572C7.12145 10.4875 7.08831 10.607 7.02202 10.7159C6.9581 10.8224 6.87287 10.9077 6.76634 10.9716C6.6598 11.0355 6.54143 11.0675 6.41122 11.0675Z" fill="white"/>
<path d="M5.875 8.90838H5.775V9.00838H5.875V8.90838ZM5.875 8.84091L5.775 8.83983V8.84091H5.875ZM6.00639 7.78977L5.91135 7.75867L5.9111 7.75945L6.00639 7.78977ZM6.36861 7.15767L6.29685 7.08802L6.29685 7.08802L6.36861 7.15767ZM6.93324 6.71733L6.98484 6.80302L6.98674 6.80181L6.93324 6.71733ZM7.31676 6.41548L7.38672 6.48693L7.38672 6.48693L7.31676 6.41548ZM7.58665 6.03196L7.49576 5.99024L7.58665 6.03196ZM7.53693 5.00568L7.45294 5.05995L7.45294 5.05995L7.53693 5.00568ZM7.1392 4.65057L7.09294 4.73924L7.09448 4.74001L7.1392 4.65057ZM6.07031 4.63636L6.11189 4.72731L6.11189 4.72731L6.07031 4.63636ZM5.65838 4.99148L5.74082 5.04808L5.74121 5.04751L5.65838 4.99148ZM5.47017 5.60582V5.70582H5.56378L5.56995 5.61241L5.47017 5.60582ZM4.39062 5.60582L4.2907 5.60194L4.28666 5.70582H4.39062V5.60582ZM4.71378 4.52628L4.79657 4.58236L4.79678 4.58205L4.71378 4.52628ZM5.50213 3.85511L5.46031 3.76428L5.46006 3.76439L5.50213 3.85511ZM7.7358 3.87287L7.69107 3.96231L7.6916 3.96257L7.7358 3.87287ZM8.49574 4.55114L8.41066 4.6037L8.41117 4.60451L8.49574 4.55114ZM8.64489 6.28054L8.73795 6.31714L8.73809 6.31678L8.64489 6.28054ZM8.28977 6.84517L8.21649 6.77712L8.21597 6.77769L8.28977 6.84517ZM7.7429 7.28551L7.69144 7.19975L7.68999 7.20066L7.7429 7.28551ZM7.25284 7.67614L7.1796 7.60804L7.17896 7.60874L7.25284 7.67614ZM6.89062 8.84091L6.79062 8.83917V8.84091H6.89062ZM6.89062 8.90838V9.00838H6.99063V8.90838H6.89062ZM5.91051 10.8615L5.8398 10.9322L5.84041 10.9328L5.91051 10.8615ZM5.91051 9.86009L5.98062 9.9314L5.98122 9.9308L5.91051 9.86009ZM6.90838 9.86009L6.83766 9.93081L6.83888 9.93198L6.90838 9.86009ZM7.02202 10.7159L6.9366 10.6639L6.93627 10.6645L7.02202 10.7159ZM5.975 8.90838V8.84091H5.775V8.90838H5.975ZM5.97499 8.84198C5.97968 8.40629 6.0231 8.06707 6.10168 7.82009L5.9111 7.75945C5.82396 8.0333 5.77979 8.39484 5.77501 8.83983L5.97499 8.84198ZM6.10143 7.82088C6.18296 7.57177 6.29679 7.37524 6.44037 7.22732L6.29685 7.08802C6.12793 7.26207 6.00028 7.48694 5.91135 7.75867L6.10143 7.82088ZM6.44037 7.22732C6.58981 7.07334 6.77099 6.93176 6.98482 6.803L6.88165 6.63166C6.65515 6.76805 6.4599 6.92003 6.29685 7.08802L6.44037 7.22732ZM6.98674 6.80181C7.13438 6.70831 7.2678 6.60338 7.38672 6.48693L7.2468 6.34403C7.13845 6.45012 7.01619 6.54643 6.87973 6.63285L6.98674 6.80181ZM7.38672 6.48693C7.50908 6.36712 7.60614 6.22921 7.67753 6.07368L7.49576 5.99024C7.43458 6.12354 7.35171 6.2413 7.2468 6.34403L7.38672 6.48693ZM7.67753 6.07368C7.75042 5.91489 7.78608 5.74066 7.78608 5.55256H7.58608C7.58608 5.71484 7.55545 5.86021 7.49576 5.99024L7.67753 6.07368ZM7.78608 5.55256C7.78608 5.32556 7.7323 5.12378 7.62092 4.95141L7.45294 5.05995C7.54042 5.19534 7.58608 5.35815 7.58608 5.55256H7.78608ZM7.62092 4.95141C7.51167 4.78232 7.36546 4.65189 7.18393 4.56113L7.09448 4.74001C7.24439 4.81497 7.36333 4.92127 7.45294 5.05995L7.62092 4.95141ZM7.18546 4.56191C7.00654 4.46856 6.80815 4.42273 6.59233 4.42273V4.62273C6.77897 4.62273 6.94516 4.66212 7.09295 4.73923L7.18546 4.56191ZM6.59233 4.42273C6.3957 4.42273 6.20751 4.46369 6.02874 4.54542L6.11189 4.72731C6.26455 4.65752 6.42438 4.62273 6.59233 4.62273V4.42273ZM6.02874 4.54542C5.8452 4.62932 5.69403 4.76031 5.57555 4.93545L5.74121 5.04751C5.84054 4.90067 5.96399 4.79492 6.11189 4.72731L6.02874 4.54542ZM5.57594 4.93488C5.4542 5.11219 5.38779 5.33573 5.37039 5.59923L5.56995 5.61241C5.5857 5.37402 5.64475 5.188 5.74082 5.04808L5.57594 4.93488ZM5.47017 5.50582H4.39062V5.70582H5.47017V5.50582ZM4.49055 5.60971C4.50654 5.19842 4.61013 4.85759 4.79657 4.58236L4.63099 4.47019C4.4197 4.78209 4.30785 5.16095 4.2907 5.60194L4.49055 5.60971ZM4.79678 4.58205C4.98534 4.30146 5.2339 4.08974 5.5442 3.94583L5.46006 3.76439C5.11695 3.92352 4.83994 4.15925 4.63078 4.4705L4.79678 4.58205ZM5.54395 3.94595C5.85867 3.80104 6.20761 3.72784 6.59233 3.72784V3.52784C6.18159 3.52784 5.80373 3.60616 5.46031 3.76428L5.54395 3.94595ZM6.59233 3.72784C7.01538 3.72784 7.38068 3.80712 7.69107 3.96231L7.78052 3.78343C7.4375 3.61192 7.0405 3.52784 6.59233 3.52784V3.72784ZM7.6916 3.96257C8.00259 4.11581 8.24125 4.32951 8.41067 4.6037L8.58081 4.49857C8.39038 4.19037 8.12241 3.9519 7.78 3.78317L7.6916 3.96257ZM8.41117 4.60451C8.58212 4.87535 8.66918 5.19369 8.66918 5.56321H8.86918C8.86918 5.16095 8.77395 4.80457 8.5803 4.49776L8.41117 4.60451ZM8.66918 5.56321C8.66918 5.81792 8.62939 6.04447 8.55169 6.2443L8.73809 6.31678C8.8261 6.09047 8.86918 5.83881 8.86918 5.56321H8.66918ZM8.55182 6.24394C8.47353 6.44303 8.36187 6.62057 8.21649 6.77713L8.36305 6.91322C8.52545 6.73833 8.65052 6.53945 8.73795 6.31714L8.55182 6.24394ZM8.21597 6.77769C8.07164 6.93556 7.8971 7.07637 7.69145 7.19976L7.79435 7.37126C8.01484 7.23897 8.20488 7.08622 8.36358 6.91265L8.21597 6.77769ZM7.68999 7.20066C7.48329 7.32953 7.31252 7.4651 7.17961 7.60804L7.32607 7.74423C7.44411 7.61729 7.60004 7.49244 7.79581 7.37037L7.68999 7.20066ZM7.17896 7.60874C7.04534 7.75521 6.94828 7.9282 6.88738 8.12613L7.07853 8.18495C7.13127 8.01357 7.21413 7.86694 7.32672 7.74353L7.17896 7.60874ZM6.88738 8.12613C6.82693 8.32259 6.79548 8.56104 6.79064 8.83917L6.99061 8.84265C6.99524 8.57627 7.02535 8.35781 7.07853 8.18495L6.88738 8.12613ZM6.79062 8.84091V8.90838H6.99063V8.84091H6.79062ZM6.89062 8.80838H5.875V9.00838H6.89062V8.80838ZM6.41122 10.9675C6.24358 10.9675 6.10178 10.9093 5.98062 10.7902L5.84041 10.9328C5.9986 11.0883 6.1906 11.1675 6.41122 11.1675V10.9675ZM5.98122 10.7908C5.86019 10.6698 5.80099 10.5271 5.80099 10.3572H5.60099C5.60099 10.5804 5.68148 10.7739 5.8398 10.9322L5.98122 10.7908ZM5.80099 10.3572C5.80099 10.1902 5.85987 10.0501 5.98062 9.9314L5.84041 9.78877C5.6818 9.94469 5.60099 10.136 5.60099 10.3572H5.80099ZM5.98122 9.9308C6.10252 9.8095 6.24413 9.75057 6.41122 9.75057V9.55057C6.19005 9.55057 5.99786 9.63131 5.8398 9.78937L5.98122 9.9308ZM6.41122 9.75057C6.57558 9.75057 6.71611 9.80924 6.83767 9.9308L6.97909 9.78937C6.82129 9.63157 6.63038 9.55057 6.41122 9.55057V9.75057ZM6.83888 9.93198C6.96182 10.0508 7.02145 10.1908 7.02145 10.3572H7.22145C7.22145 10.1355 7.13903 9.94396 6.97788 9.78819L6.83888 9.93198ZM7.02145 10.3572C7.02145 10.4695 6.99314 10.571 6.9366 10.6639L7.10744 10.7679C7.18347 10.643 7.22145 10.5054 7.22145 10.3572H7.02145ZM6.93627 10.6645C6.88079 10.7569 6.80734 10.8304 6.71489 10.8858L6.81778 11.0573C6.93839 10.985 7.0354 10.888 7.10777 10.7674L6.93627 10.6645ZM6.71489 10.8858C6.62465 10.94 6.52422 10.9675 6.41122 10.9675V11.1675C6.55864 11.1675 6.69495 11.131 6.81778 11.0573L6.71489 10.8858Z" fill="white" mask="url(#path-2-outside-1_1570_2647)"/>
</svg>
